<svg width="23" height="25" viewBox="0 0 23 25" fill="none" xmlns="http://www.w3.org/2000/svg">
<g clip-path="url(#clip0_68_585)">
<path d="M20.9606 0.943359H2.04128C1.39325 0.943359 0.86792 1.51437 0.86792 2.21875V22.7832C0.86792 23.4876 1.39325 24.0586 2.04128 24.0586H20.9606C21.6086 24.0586 22.1339 23.4876 22.1339 22.7832V2.21875C22.1339 1.51437 21.6086 0.943359 20.9606 0.943359Z" fill="#3D5A98"/>
<path d="M15.5393 24.0566V15.1054H18.3029L18.7162 11.6172H15.5393V9.39061C15.5393 8.38084 15.798 7.69139 17.1295 7.69139H18.8294V4.56639C18.0062 4.47314 17.1791 4.42881 16.3515 4.43358C13.9041 4.43358 12.2187 6.05467 12.2187 9.0449V11.6172H9.45508V15.1054H12.2187V24.0566H15.5393Z" fill="white"/>
</g>
<defs>
<clipPath id="clip0_68_585">
<rect width="23" height="25" fill="white"/>
</clipPath>
</defs>
</svg>
