<svg width="84" height="32" viewBox="0 0 84 32" fill="none" xmlns="http://www.w3.org/2000/svg">
<path fill-rule="evenodd" clip-rule="evenodd" d="M35.3129 9.44974C35.3094 9.16698 35.3606 8.88628 35.4635 8.624C35.5665 8.36171 35.7191 8.12306 35.9126 7.92183C36.1061 7.7206 36.3366 7.56083 36.5907 7.45179C36.8448 7.34275 37.1175 7.2866 37.3929 7.28662H47.4212C47.8061 7.28952 48.1826 7.402 48.5089 7.61152C48.8352 7.82105 49.0985 8.11941 49.2694 8.47343C49.4422 8.83088 49.517 9.22992 49.4856 9.62768C49.4541 10.0254 49.3178 10.4069 49.0912 10.7311L41.4785 21.5221H47.4212C47.9659 21.5431 48.4814 21.7801 48.8595 22.1832C49.2376 22.5862 49.4488 23.1241 49.4488 23.6837C49.4488 24.2433 49.2376 24.7812 48.8595 25.1843C48.4814 25.5873 47.9659 25.8243 47.4212 25.8453H37.384C36.9991 25.8424 36.6226 25.7299 36.2963 25.5204C35.9701 25.3108 35.7068 25.0125 35.5358 24.6585C35.363 24.301 35.2883 23.902 35.3197 23.5042C35.3511 23.1065 35.4874 22.725 35.7141 22.4008L43.3178 11.6067H37.3751C37.1017 11.6043 36.8314 11.5466 36.5798 11.4369C36.3281 11.3271 36.1 11.1675 35.9085 10.9672C35.7169 10.7668 35.5658 10.5297 35.4636 10.2693C35.3614 10.0089 35.3102 9.73045 35.3129 9.44974Z" fill="#6758FF"/>
<path fill-rule="evenodd" clip-rule="evenodd" d="M69.549 7.82357C69.7367 7.62182 69.9621 7.46106 70.2118 7.35097C70.4615 7.24087 70.7303 7.18371 71.002 7.18289H77.4379C78.7126 7.25737 79.9338 7.73358 80.9352 8.54664C82.2426 9.63276 83.137 11.3626 83.137 13.7576C83.137 16.1526 82.2456 17.8977 80.956 19.0051C79.9265 19.8901 78.6199 20.3626 77.2775 20.3353H73.0582V23.8439C73.0582 24.1211 73.005 24.3956 72.9016 24.6518C72.7983 24.9079 72.6469 25.1407 72.4559 25.3367C72.265 25.5328 72.0383 25.6883 71.7889 25.7944C71.5394 25.9005 71.272 25.9551 71.002 25.9551C70.732 25.9551 70.4646 25.9005 70.2151 25.7944C69.9656 25.6883 69.739 25.5328 69.548 25.3367C69.3571 25.1407 69.2057 24.9079 69.1023 24.6518C68.999 24.3956 68.9458 24.1211 68.9458 23.8439V9.37346C68.9448 8.79633 69.1609 8.24108 69.549 7.82357ZM73.0582 15.9542H77.4379C77.7852 15.9405 78.1183 15.8097 78.3858 15.582C78.6532 15.3532 79.0217 14.8834 79.0217 13.7515C79.0217 12.6196 78.6651 12.226 78.4096 12.0003C78.074 11.7456 77.6757 11.5923 77.2597 11.5579H73.0582V15.9542Z" fill="#6758FF"/>
<path fill-rule="evenodd" clip-rule="evenodd" d="M54.089 7.22867C53.5305 7.23671 52.9979 7.47182 52.608 7.88246C52.2181 8.2931 52.0027 8.84573 52.009 9.41919L51.8812 23.6089C51.8749 24.1827 52.0902 24.7357 52.48 25.1468C52.8698 25.5579 53.4024 25.7937 53.9612 25.8026H63.9776C64.5301 25.7814 65.053 25.5412 65.4366 25.1324C65.8201 24.7236 66.0344 24.1781 66.0344 23.6105C66.0344 23.0428 65.8201 22.4973 65.4366 22.0886C65.053 21.6798 64.5301 21.4396 63.9776 21.4184H56.0501L56.0857 18.7305H63.4963C64.0488 18.7008 64.5692 18.4544 64.95 18.0423C65.3309 17.6302 65.5432 17.0837 65.5432 16.5156C65.5432 15.9475 65.3309 15.401 64.95 14.9889C64.5692 14.5768 64.0488 14.3304 63.4963 14.3006H56.1422L56.1778 11.6128H64.1054C64.6578 11.5916 65.1808 11.3514 65.5643 10.9426C65.9479 10.5339 66.1622 9.98834 66.1622 9.42072C66.1622 8.8531 65.9479 8.30759 65.5643 7.89881C65.1808 7.49003 64.6578 7.24983 64.1054 7.22867H54.089Z" fill="#6758FF"/>
<path fill-rule="evenodd" clip-rule="evenodd" d="M27.3318 13.2603C27.8637 10.9843 27.6765 8.83954 26.6395 7.15849C25.2549 4.90082 22.6252 3.87569 19.5083 4.03739C17.1549 1.51429 14.2965 0.339716 11.5896 1.16041C9.37592 1.83161 7.6347 3.72315 6.53827 6.32862C3.89673 7.33236 1.93266 9.13546 1.18982 11.567C0.571777 13.602 0.892684 15.7803 1.96535 17.8305C1.10662 20.494 1.17199 23.0415 2.36945 24.994C3.8789 27.4561 6.87403 28.4538 10.3921 28.0449C12.7365 30.5375 15.5742 31.6877 18.2603 30.8731C20.4739 30.205 22.2181 28.3104 23.3116 25.7049C25.9531 24.7011 27.9142 22.8981 28.66 20.4696C29.3553 18.1051 28.8116 15.5729 27.3318 13.2603ZM18.4683 22.4374H11.2865C10.9203 22.4344 10.563 22.3209 10.2592 22.111C9.95542 21.901 9.7185 21.6039 9.57797 21.2567C9.42984 20.9051 9.38246 20.5174 9.44141 20.1391C9.50035 19.7608 9.66318 19.4077 9.91076 19.1211L14.2281 14.1359H11.2865C10.7766 14.1359 10.2876 13.9279 9.92711 13.5577C9.56658 13.1876 9.36403 12.6855 9.36403 12.1619C9.36403 11.6384 9.56658 11.1363 9.92711 10.7662C10.2876 10.396 10.7766 10.188 11.2865 10.188H18.4683C18.8341 10.1911 19.1909 10.3043 19.4946 10.5137C19.7983 10.723 20.0355 11.0192 20.1768 11.3657C20.3235 11.7175 20.3701 12.1049 20.3112 12.4829C20.2523 12.8609 20.0903 13.214 19.844 13.5013L15.5266 18.4865H18.4683C18.9782 18.4865 19.4671 18.6945 19.8277 19.0646C20.1882 19.4348 20.3907 19.9369 20.3907 20.4604C20.3907 20.9839 20.1882 21.486 19.8277 21.8562C19.4671 22.2264 18.9782 22.4343 18.4683 22.4343V22.4374Z" fill="#6758FF"/>
</svg>
