<svg xmlns="http://www.w3.org/2000/svg" xmlns:xlink="http://www.w3.org/1999/xlink" viewBox="0 0 2649.27 1417.32"><defs><style>.cls-1{fill:none;}.cls-2{clip-path:url(#clip-path);}.cls-3{fill:url(#linear-gradient);}.cls-4{clip-path:url(#clip-path-2);}.cls-5{fill:url(#linear-gradient-2);}.cls-6{clip-path:url(#clip-path-3);}.cls-7{fill:url(#linear-gradient-3);}.cls-8{clip-path:url(#clip-path-4);}.cls-9{fill:url(#linear-gradient-4);}.cls-10{clip-path:url(#clip-path-5);}.cls-11{fill:url(#linear-gradient-5);}.cls-12{clip-path:url(#clip-path-6);}.cls-13{fill:url(#linear-gradient-6);}.cls-14{clip-path:url(#clip-path-7);}.cls-15{fill:url(#linear-gradient-7);}.cls-16{clip-path:url(#clip-path-8);}.cls-17{fill:#f9f27f;}</style><clipPath id="clip-path" transform="translate(844 428)"><path class="cls-1" d="M650.39,219.68c121,110.42,185.53,354.25,181.77,621.5,7.72-.78,18.24,1.26,37.07,9.77,52.88,23.81,84.11,29.71,117.64,26.93s43.12,9.07,81.36,29.46c23,12.27,41.21,11.3,57.86,10.34,11-.63,21.35-1.3,32,1.91,15.46,4.75,21.19,1.58,27.44-1.6,4.44-2.24,9.15-4.49,17.74-4,.76.08,1.39.13,2.08.22,25.1-388.65-67.06-748.69-235-821.8A185,185,0,0,0,895.6,76.75C815.05,76.75,730,128,650.39,219.68"/></clipPath><linearGradient id="linear-gradient" x1="-479.17" y1="820.92" x2="-478.17" y2="820.92" gradientTransform="matrix(1408.26, 1657.04, 1657.04, -1408.25, -685560.56, 1949394.95)" gradientUnits="userSpaceOnUse"><stop offset="0" stop-color="#0099d9"/><stop offset="0.75" stop-color="#004098"/><stop offset="1" stop-color="#004387"/></linearGradient><clipPath id="clip-path-2" transform="translate(844 428)"><path class="cls-1" d="M120,509.36C85.13,552,51.21,602.52,19.32,659.56-19.26,728.7-55,807.44-85.7,893.89c11.13,2.78,23.79,2.62,35.22,3.49,19.55,1.37,19.55,27.83,29.29,43.12,6.72,10.63,10.8,10.5,17.32,10.37a47,47,0,0,1,10.44.73C20.53,954.45,41.4,978,67.82,983s75.89,11.1,116.17.71c23.68-6.12,40.71-13.29,55.28-23,9.74-48.26,21.86-108,23.81-117.81,33.78-165.75,84.79-317.66,147.34-449.69q13.56-28.4,28.22-56.23a124.17,124.17,0,0,0-41.76-6.9C311.89,330,205.22,405,120,509.36"/></clipPath><linearGradient id="linear-gradient-2" x1="-479.17" y1="820.92" x2="-478.17" y2="820.92" gradientTransform="matrix(1393.54, 1639.72, 1639.72, -1393.54, -678888.86, 1929454.58)" xlink:href="#linear-gradient"/><clipPath id="clip-path-3" transform="translate(844 428)"><path class="cls-1" d="M507,441.85C455.34,546.17,410.37,669.3,376.15,807c-4.53,18.15-15.33,68.34-26,119.09,22.21,2.06,17.92,4.36,38.44-15.68,20.91-20.54,54.22-24.12,110.65-32.49,41.41-6.18,56.89,1.2,84.57,2,12.49-191.28-7.09-366.42-63-465.38-4.6,8.91-9.28,18-13.83,27.31"/></clipPath><linearGradient id="linear-gradient-3" x1="-479.17" y1="820.92" x2="-478.17" y2="820.92" gradientTransform="matrix(1419.38, 1670.12, 1670.12, -1419.38, -691367.08, 1965105.53)" xlink:href="#linear-gradient"/><clipPath id="clip-path-4" transform="translate(844 428)"><path class="cls-1" d="M560.9-423c-50.1,14.29-90.57,4.27-116.38,15-5,2-8.53,1.15-14,1.82s-13.89,5.46-19.91,9-28,6.7-31.84,7.7-4.12,3.15-9.61,4.79c-2.34.94-5.21.79-8.26.68-3.21-.15-6.58-.29-9.68.8l-.65.43c-3.27,1.33-20.88,0-27.67-.89s-10.89,1.56-17.27,2.87-8.74,1.88-13.77,2.53a4.1,4.1,0,0,1-3.23-.28c-1.37-.5-3-1-5.86.54-5.73,3.28-17.63,2-22.73,1-3.88-.6-8.65-3.16-13.47-2.51-7.07-.33-12.12-6.06-26.93-7.77-14.15-1.56-22.22,6.14-30.85,7.77-2.43,1.08-9.52,1.53-22.18,6.41-2.28,2.28-8.66,2.54-12.54,2.54-4.3-.41-6.49-1.41-8.33-2.84-2.5-3.6-6.38-2.88-9.28-6.44-2.91-1.3-4.52-4.21-6.84-6.62-9.39-4-18.52-6.83-30.23-6.65a15.11,15.11,0,0,1-4.6-.26,17.6,17.6,0,0,0-4.23-.29,44.41,44.41,0,0,1-8.7.28,13.54,13.54,0,0,0-4.59.2,22.31,22.31,0,0,1-10.83.3,17.74,17.74,0,0,0-8-.13c-2.26,1.05-4.36.57-6.7.07a16.89,16.89,0,0,0-6.45-.35C31.71-390.3,22.81-389,9.22-385.92-9.91-380.84-36.51-373.79-51-374.55c-18.83-1.71-26.57.87-41,6.9-10.52,1.9-16,4.09-26.35,8-3.24,1.3-7.72,3.12-9.07,5.7-11.5,6.44-26.39,5.6-36,8.78-9.78,3.23-20.37,2-29.91.8-8.46-1.06-16.12-2.14-21.67-.13-12.3,4.45-32.25,15-44.54,19.57-5.14,2-10.21,4.22-15.17,6.64-2,3.57-7,4.16-9.93,6.44-3.3,4.18-3.6,3.17-9.57,8-2.86,3-10.88,6.35-13.85,8.87-8.36,3.67-12.52,6.86-25.08,13.27-9.58,4.63-14.72,4.78-26.65,7.75-7.7,1.89-12.76,5.2-20.52,8-5,1.94-14.73,5.71-19.89,5.47a34,34,0,0,0-17.48,3.75c-5.36,2.3-9.41,6.81-13,9.39-4.4,3.45-7.94,5-13,10.22-3.3,3.84-4.81,6.57-9.48,9.54a73.84,73.84,0,0,1-12.25,5.66c-3.26,1.56-6.53,2.69-8.85,3.93-3.82,1.39-4.42,1.93-8.57,3.66a21.15,21.15,0,0,0-7.92,3c-3,2.93-5.85,4.49-10.15,7a231.57,231.57,0,0,0-21.75,13.44c-29.61,14-45.76,18.74-76.67,40-4.81,3.32-12,6.29-17.76,11.93-2.72,2.26-8.38,4.4-13.41,6.7-6.66,3.13-12.56,4.54-23,8.79-12,4-20.1,7.76-32.3,13.12-5.39,2.58-15.07,8.87-19.08,10.88a176.35,176.35,0,0,0-15.55,10c-4.21,3.06-13.75,11.52-22.54,16.88-3.53,1.86-4.57,2.3-5.49,2.53-23.44,5.45-42.07,60.54-63.15,53.62C-824-12.91-827.72-7.29-826.23,7.37c0,0-15.27,27.28-8.3,36.4,7,8.95,9.13,22.25-1.7,27.78s0,3.56-5.92,34.85,3.45,66,13.21,86.19,20.22,42.49,20.87,57c.69,14.7,9.67,27.85,14.85,27.34s7.44,6,10.44,18.83c13.12,54.64,38,66.63,60.34,73.57s19.38,13.8,19.38,29.5,4.21,22.69,12.59,20.54,38.25,27.17,58.27,54c20.11,27.08,27.94,17,33.53,68.43s26.44,75.1,44.47,100.92,50,24.39,71,46.58c8.76,9.26,15.81,8.92,22.92,8.59,9.87-.46,19.89-.93,34.88,24.08,25.7,43.18,69.55,29.23,86.21,52.89s67.45,46,86.34,50,37.53,13.29,54.25,37.7c7.14,10.45,19,14.85,31.06,16.3,30.93-91.22,68.12-176.43,109.79-253.73A1406.55,1406.55,0,0,1,21.71,494.83C166.53,284.77,367,138.52,525.57,159.06a191.22,191.22,0,0,1,20.13,3.61C698.5-47.22,884.93-160.24,1060.55-127.06c264.8,50,452.93,477,452.32,953.37,7.86-2.3,8.51-5.66,14.64-10.8,10.13-7.14,31.82-9,33.54-24.69-1-8.22.56-12.92,6-14a8.65,8.65,0,0,1,4.58-1,6.6,6.6,0,0,0,4.88-1.58c2.45-2,9.17-7.7,12.23-10.05,4.28-3.21-.24-8-.24-14.57,1-5.84,1.56-10,2.59-15.9,3.14-4.4,11.14-8.63,12.27-9.13,7.57-5.49,8.46-12.3,5.58-15.73-3-5.4.52-12.84,11.62-16.15,8.13-2.5,13.06-7,16.94-14.8-2.3-23,15.79-11.64,28.8-21.9,10.11-8.89,9.35-17.24,11.71-22.19,4.39-7.35,13.34-5.25,25-11.8,19.11-14.07,37.39-26.55,47.82-60.51,7.07-25.85-.56-34.14-.76-59.71,1.56-12-3.38-17.5,4.17-23.73,17.5-6.24,8.33-15.68,8.33-32.36-.52-13.81-8.62-15.14-6-26.68,6.76-16.91,5.22-21.34,8.61-41.19,3.38-14-14.9-22.18-8.44-38.65,11.82-24.24,25.12-19.75,29.08-35.93,8-19.13,22.35-15.64,19-43.17-1.83-8.76-2.63-13.72-2.06-21.31,1-8.4,3.36-13,2.18-23.23-6.24-40.91-11.3-64.7-14.42-96.84-1.06-6.12-.34-15.84-.91-22.35-2.23-20.38-4.36-40.71-6.61-61-2.56-22.3-8.11-25.09-15.75-41.27-2.69-4.36-5.2-15.88-7.33-20.87-4.68-8.76-10.17-5.12-15-17.63-3.08-5.12.43-9.74-1.75-17.83-2.26-7-5.62-6.37-14.75-18.54-2.87-4.69-5.4-7.4-5.75-10.65-4.58-6.1-15.42-3.73-23.47-12.28-4.73-4.77-2.91-7.61-8.65-12.58-4.27-3-27.94-14-32.69-29.78-1.38-4.81-1.6-6-7-10.88-6.77-4.15-13.65-1.42-19.42-6-11.6-9.43-17.32-32.25-31.2-41-21.67-9.33-36.53-17-63.42-15.58a43.78,43.78,0,0,1-10.8-1.41c-3.58-.85-6.56-1.71-9.22-1.37-13.77,1.39-12.06-7.45-17.49-10.53a25.31,25.31,0,0,0-7.39-.26,24.3,24.3,0,0,1-8.33-.4c-4.86-1.21-10.37-.37-15.22-5.81-4.06-4.27-2.48-10.52-4.12-14.34-4.76-8.82-17.46-4.75-25.82-3.23-10.65,4.25-21.29-3.42-29.15-3.88-12.14-2.1-32.59-20.88-47.69-25.29-23.27-7.35-42.79-3.42-68.39-8.17-5.7-1.52-14.63-3.67-20.88-5.95-4.45-.76-7.31-4.21-12.5-6.83-4.22-1.24-.78-3.82-7.09-6-7-3.58-12.82-4.12-19.8-7.53-4.44-2.06-12-5.48-17.68-7.54-7.41-1.63-15-3.23-22.6-4.9-3.32-.81-6.52-2-9.8-3.13-4.68-1.38-7.81-2.9-13-4.36-10.06-3.29-19.06-17.95-29.4-21.55-11.41.51-22.87.88-34.27,1.21a10.28,10.28,0,0,0-5.93.72,12.19,12.19,0,0,1-6.65.71c-6-1.63-10.61-2-13.56-2.64-13.32-2.13-8.22-12-17.59-16.27-17-7.66-23.36-6.66-31.1-7.16-9.91,0-17.44-2.13-20.69,5.34-8.33,4.57-16.9-1.46-32.67-6.32a8.61,8.61,0,0,1-5.14-2.19c-2.08-2.08-7.87-7.33-14.35-5.76-4.89,1.34-6.6,2.69-10.87,9.69-4.75,6.49-10.24,10.71-15.7,15.9-8.88,2-16.7,25.55-40.72,21.32-23.92-5.64-39.16-19.2-60.12-33.08-6.09-3.92-9.54-13-16.13-13.1-7.4-.21-4.51-3.77-8.85-7a8.94,8.94,0,0,0-7.14-3.6c-8.11.1-14-2.35-21.41-4.86-5.44-2-9.62-6.46-19.28-8.05-10.3.3-13.6-.37-24,1.59a97.2,97.2,0,0,1-10.3-.33L695-410.27c-2.38-.27-5.42.71-8.3,1.69s-5.49,1.93-7.12,1.67c-7.16,1.6-12.51-.92-19.21-2.48-7.47-1-10.67-4.55-15.17-5.83-11.12-2.39-9.63-.32-19.23-2.88a103.27,103.27,0,0,1-18.55-7.44c-3.38-1.8-8.3-2.46-13.7-2.46-13.19,0-29.24,4-32.84,5"/></clipPath><linearGradient id="linear-gradient-4" x1="-479.17" y1="820.92" x2="-478.17" y2="820.92" gradientTransform="matrix(1414.97, 1664.94, 1664.94, -1414.97, -688937.2, 1958765.55)" xlink:href="#linear-gradient"/><clipPath id="clip-path-5" transform="translate(844 428)"><path class="cls-1" d="M969.32,91.46c167.92,73.11,260.08,433.15,235,821.8,18.37,2.32,13.47,16.91,27.92,29.67,14.79,13.31,42.35,8.43,62.85,5.05s24-15.4,37.94-23.12,22.92-3.45,36.48-10.05,22.7-10.82,31.7-28.86,18.4-23.51,38.24-25.68,20.32-4.08,20.32-4.08c7.68-4.23,7.83-12.8,10.07-20.78,14.64-.76,25.66.05,35.94-8.8,2.45-.42,4.4-.87,6.11-1.3.61-476.41-187.52-903.42-452.32-953.37Z"/></clipPath><linearGradient id="linear-gradient-5" x1="-478.69" y1="821.36" x2="-477.69" y2="821.36" gradientTransform="matrix(-230.19, -825.62, -825.62, 230.19, 569328.42, -583408.58)" gradientUnits="userSpaceOnUse"><stop offset="0" stop-color="#fff"/><stop offset="0.12" stop-color="#fff"/><stop offset="0.36" stop-color="#fdd10d"/><stop offset="0.39" stop-color="#fdd10d"/><stop offset="0.75" stop-color="#fabf00"/><stop offset="1" stop-color="#fabf00"/></linearGradient><clipPath id="clip-path-6" transform="translate(844 428)"><path class="cls-1" d="M545.71,162.68c38.46,8.81,73.45,28.51,104.68,57,104.8-120.59,219-171.32,319.93-127.22l90.23-219.52a330.3,330.3,0,0,0-61.32-5.72c-157,0-318.39,109.83-453.52,295.46"/></clipPath><linearGradient id="linear-gradient-6" x1="-478.86" y1="821.27" x2="-477.86" y2="821.27" gradientTransform="matrix(-53.69, -1316.66, -1316.66, 53.69, 1056471.11, -673579.17)" xlink:href="#linear-gradient-5"/><clipPath id="clip-path-7" transform="translate(844 428)"><path class="cls-1" d="M21.71,494.83A1405.39,1405.39,0,0,0-57.76,625.22c-41.67,77.29-78.86,162.5-109.79,253.72,15.76,1.81,31.88-1.54,37.78-3.14,10.41-2.78,12.51-8.29,24.53,6.61,4.94,6.25,11.84,9.57,19.54,11.48C-55,807.44-19.26,728.7,19.32,659.56,51.22,602.52,85.13,552,120,509.36,219.9,387,349.3,305.09,438.64,336.94Q465.87,284.29,497.37,234q22.93-36.5,48.34-71.34a189.33,189.33,0,0,0-20.14-3.62,238,238,0,0,0-30.35-1.91C342.07,157.13,157.44,298,21.71,494.83"/></clipPath><linearGradient id="linear-gradient-7" x1="-479.01" y1="821.63" x2="-478.01" y2="821.63" gradientTransform="matrix(273.05, -573.09, -573.09, -273.05, 601642.64, -49214.13)" gradientUnits="userSpaceOnUse"><stop offset="0" stop-color="#fff"/><stop offset="0.07" stop-color="#fff"/><stop offset="0.34" stop-color="#abce24"/><stop offset="0.57" stop-color="#46b035"/><stop offset="0.73" stop-color="#46b035"/><stop offset="1" stop-color="#46b035"/></linearGradient><clipPath id="clip-path-8" transform="translate(844 428)"><rect class="cls-1" x="-6787.64" y="-9565.71" width="11045.42" height="15621.26"/></clipPath></defs><g id="Layer_2" data-name="Layer 2"><g id="Layer_1-2" data-name="Layer 1"><g class="cls-2"><path class="cls-3" d="M650.39,219.68c121,110.42,185.53,354.25,181.77,621.5,7.72-.78,18.24,1.26,37.07,9.77,52.88,23.81,84.11,29.71,117.64,26.93s43.12,9.07,81.36,29.46c23,12.27,41.21,11.3,57.86,10.34,11-.63,21.35-1.3,32,1.91,15.46,4.75,21.19,1.58,27.44-1.6,4.44-2.24,9.15-4.49,17.74-4,.76.08,1.39.13,2.08.22,25.1-388.65-67.06-748.69-235-821.8A185,185,0,0,0,895.6,76.75C815.05,76.75,730,128,650.39,219.68" transform="translate(844 428)"/></g><g class="cls-4"><path class="cls-5" d="M120,509.36C85.13,552,51.21,602.52,19.32,659.56-19.26,728.7-55,807.44-85.7,893.89c11.13,2.78,23.79,2.62,35.22,3.49,19.55,1.37,19.55,27.83,29.29,43.12,6.72,10.63,10.8,10.5,17.32,10.37a47,47,0,0,1,10.44.73C20.53,954.45,41.4,978,67.82,983s75.89,11.1,116.17.71c23.68-6.12,40.71-13.29,55.28-23,9.74-48.26,21.86-108,23.81-117.81,33.78-165.75,84.79-317.66,147.34-449.69q13.56-28.4,28.22-56.23a124.17,124.17,0,0,0-41.76-6.9C311.89,330,205.22,405,120,509.36" transform="translate(844 428)"/></g><g class="cls-6"><path class="cls-7" d="M507,441.85C455.34,546.17,410.37,669.3,376.15,807c-4.53,18.15-15.33,68.34-26,119.09,22.21,2.06,17.92,4.36,38.44-15.68,20.91-20.54,54.22-24.12,110.65-32.49,41.41-6.18,56.89,1.2,84.57,2,12.49-191.28-7.09-366.42-63-465.38-4.6,8.91-9.28,18-13.83,27.31" transform="translate(844 428)"/></g><g class="cls-8"><path class="cls-9" d="M560.9-423c-50.1,14.29-90.57,4.27-116.38,15-5,2-8.53,1.15-14,1.82s-13.89,5.46-19.91,9-28,6.7-31.84,7.7-4.12,3.15-9.61,4.79c-2.34.94-5.21.79-8.26.68-3.21-.15-6.58-.29-9.68.8l-.65.43c-3.27,1.33-20.88,0-27.67-.89s-10.89,1.56-17.27,2.87-8.74,1.88-13.77,2.53a4.1,4.1,0,0,1-3.23-.28c-1.37-.5-3-1-5.86.54-5.73,3.28-17.63,2-22.73,1-3.88-.6-8.65-3.16-13.47-2.51-7.07-.33-12.12-6.06-26.93-7.77-14.15-1.56-22.22,6.14-30.85,7.77-2.43,1.08-9.52,1.53-22.18,6.41-2.28,2.28-8.66,2.54-12.54,2.54-4.3-.41-6.49-1.41-8.33-2.84-2.5-3.6-6.38-2.88-9.28-6.44-2.91-1.3-4.52-4.21-6.84-6.62-9.39-4-18.52-6.83-30.23-6.65a15.11,15.11,0,0,1-4.6-.26,17.6,17.6,0,0,0-4.23-.29,44.41,44.41,0,0,1-8.7.28,13.54,13.54,0,0,0-4.59.2,22.31,22.31,0,0,1-10.83.3,17.74,17.74,0,0,0-8-.13c-2.26,1.05-4.36.57-6.7.07a16.89,16.89,0,0,0-6.45-.35C31.71-390.3,22.81-389,9.22-385.92-9.91-380.84-36.51-373.79-51-374.55c-18.83-1.71-26.57.87-41,6.9-10.52,1.9-16,4.09-26.35,8-3.24,1.3-7.72,3.12-9.07,5.7-11.5,6.44-26.39,5.6-36,8.78-9.78,3.23-20.37,2-29.91.8-8.46-1.06-16.12-2.14-21.67-.13-12.3,4.45-32.25,15-44.54,19.57-5.14,2-10.21,4.22-15.17,6.64-2,3.57-7,4.16-9.93,6.44-3.3,4.18-3.6,3.17-9.57,8-2.86,3-10.88,6.35-13.85,8.87-8.36,3.67-12.52,6.86-25.08,13.27-9.58,4.63-14.72,4.78-26.65,7.75-7.7,1.89-12.76,5.2-20.52,8-5,1.94-14.73,5.71-19.89,5.47a34,34,0,0,0-17.48,3.75c-5.36,2.3-9.41,6.81-13,9.39-4.4,3.45-7.94,5-13,10.22-3.3,3.84-4.81,6.57-9.48,9.54a73.84,73.84,0,0,1-12.25,5.66c-3.26,1.56-6.53,2.69-8.85,3.93-3.82,1.39-4.42,1.93-8.57,3.66a21.15,21.15,0,0,0-7.92,3c-3,2.93-5.85,4.49-10.15,7a231.57,231.57,0,0,0-21.75,13.44c-29.61,14-45.76,18.74-76.67,40-4.81,3.32-12,6.29-17.76,11.93-2.72,2.26-8.38,4.4-13.41,6.7-6.66,3.13-12.56,4.54-23,8.79-12,4-20.1,7.76-32.3,13.12-5.39,2.58-15.07,8.87-19.08,10.88a176.35,176.35,0,0,0-15.55,10c-4.21,3.06-13.75,11.52-22.54,16.88-3.53,1.86-4.57,2.3-5.49,2.53-23.44,5.45-42.07,60.54-63.15,53.62C-824-12.91-827.72-7.29-826.23,7.37c0,0-15.27,27.28-8.3,36.4,7,8.95,9.13,22.25-1.7,27.78s0,3.56-5.92,34.85,3.45,66,13.21,86.19,20.22,42.49,20.87,57c.69,14.7,9.67,27.85,14.85,27.34s7.44,6,10.44,18.83c13.12,54.64,38,66.63,60.34,73.57s19.38,13.8,19.38,29.5,4.21,22.69,12.59,20.54,38.25,27.17,58.27,54c20.11,27.08,27.94,17,33.53,68.43s26.44,75.1,44.47,100.92,50,24.39,71,46.58c8.76,9.26,15.81,8.92,22.92,8.59,9.87-.46,19.89-.93,34.88,24.08,25.7,43.18,69.55,29.23,86.21,52.89s67.45,46,86.34,50,37.53,13.29,54.25,37.7c7.14,10.45,19,14.85,31.06,16.3,30.93-91.22,68.12-176.43,109.79-253.73A1406.55,1406.55,0,0,1,21.71,494.83C166.53,284.77,367,138.52,525.57,159.06a191.22,191.22,0,0,1,20.13,3.61C698.5-47.22,884.93-160.24,1060.55-127.06c264.8,50,452.93,477,452.32,953.37,7.86-2.3,8.51-5.66,14.64-10.8,10.13-7.14,31.82-9,33.54-24.69-1-8.22.56-12.92,6-14a8.65,8.65,0,0,1,4.58-1,6.6,6.6,0,0,0,4.88-1.58c2.45-2,9.17-7.7,12.23-10.05,4.28-3.21-.24-8-.24-14.57,1-5.84,1.56-10,2.59-15.9,3.14-4.4,11.14-8.63,12.27-9.13,7.57-5.49,8.46-12.3,5.58-15.73-3-5.4.52-12.84,11.62-16.15,8.13-2.5,13.06-7,16.94-14.8-2.3-23,15.79-11.64,28.8-21.9,10.11-8.89,9.35-17.24,11.71-22.19,4.39-7.35,13.34-5.25,25-11.8,19.11-14.07,37.39-26.55,47.82-60.51,7.07-25.85-.56-34.14-.76-59.71,1.56-12-3.38-17.5,4.17-23.73,17.5-6.24,8.33-15.68,8.33-32.36-.52-13.81-8.62-15.14-6-26.68,6.76-16.91,5.22-21.34,8.61-41.19,3.38-14-14.9-22.18-8.44-38.65,11.82-24.24,25.12-19.75,29.08-35.93,8-19.13,22.35-15.64,19-43.17-1.83-8.76-2.63-13.72-2.06-21.31,1-8.4,3.36-13,2.18-23.23-6.24-40.91-11.3-64.7-14.42-96.84-1.06-6.12-.34-15.84-.91-22.35-2.23-20.38-4.36-40.71-6.61-61-2.56-22.3-8.11-25.09-15.75-41.27-2.69-4.36-5.2-15.88-7.33-20.87-4.68-8.76-10.17-5.12-15-17.63-3.08-5.12.43-9.74-1.75-17.83-2.26-7-5.62-6.37-14.75-18.54-2.87-4.69-5.4-7.4-5.75-10.65-4.58-6.1-15.42-3.73-23.47-12.28-4.73-4.77-2.91-7.61-8.65-12.58-4.27-3-27.94-14-32.69-29.78-1.38-4.81-1.6-6-7-10.88-6.77-4.15-13.65-1.42-19.42-6-11.6-9.43-17.32-32.25-31.2-41-21.67-9.33-36.53-17-63.42-15.58a43.78,43.78,0,0,1-10.8-1.41c-3.58-.85-6.56-1.71-9.22-1.37-13.77,1.39-12.06-7.45-17.49-10.53a25.31,25.31,0,0,0-7.39-.26,24.3,24.3,0,0,1-8.33-.4c-4.86-1.21-10.37-.37-15.22-5.81-4.06-4.27-2.48-10.52-4.12-14.34-4.76-8.82-17.46-4.75-25.82-3.23-10.65,4.25-21.29-3.42-29.15-3.88-12.14-2.1-32.59-20.88-47.69-25.29-23.27-7.35-42.79-3.42-68.39-8.17-5.7-1.52-14.63-3.67-20.88-5.95-4.45-.76-7.31-4.21-12.5-6.83-4.22-1.24-.78-3.82-7.09-6-7-3.58-12.82-4.12-19.8-7.53-4.44-2.06-12-5.48-17.68-7.54-7.41-1.63-15-3.23-22.6-4.9-3.32-.81-6.52-2-9.8-3.13-4.68-1.38-7.81-2.9-13-4.36-10.06-3.29-19.06-17.95-29.4-21.55-11.41.51-22.87.88-34.27,1.21a10.28,10.28,0,0,0-5.93.72,12.19,12.19,0,0,1-6.65.71c-6-1.63-10.61-2-13.56-2.64-13.32-2.13-8.22-12-17.59-16.27-17-7.66-23.36-6.66-31.1-7.16-9.91,0-17.44-2.13-20.69,5.34-8.33,4.57-16.9-1.46-32.67-6.32a8.61,8.61,0,0,1-5.14-2.19c-2.08-2.08-7.87-7.33-14.35-5.76-4.89,1.34-6.6,2.69-10.87,9.69-4.75,6.49-10.24,10.71-15.7,15.9-8.88,2-16.7,25.55-40.72,21.32-23.92-5.64-39.16-19.2-60.12-33.08-6.09-3.92-9.54-13-16.13-13.1-7.4-.21-4.51-3.77-8.85-7a8.94,8.94,0,0,0-7.14-3.6c-8.11.1-14-2.35-21.41-4.86-5.44-2-9.62-6.46-19.28-8.05-10.3.3-13.6-.37-24,1.59a97.2,97.2,0,0,1-10.3-.33L695-410.27c-2.38-.27-5.42.71-8.3,1.69s-5.49,1.93-7.12,1.67c-7.16,1.6-12.51-.92-19.21-2.48-7.47-1-10.67-4.55-15.17-5.83-11.12-2.39-9.63-.32-19.23-2.88a103.27,103.27,0,0,1-18.55-7.44c-3.38-1.8-8.3-2.46-13.7-2.46-13.19,0-29.24,4-32.84,5" transform="translate(844 428)"/></g><g class="cls-10"><path class="cls-11" d="M969.32,91.46c167.92,73.11,260.08,433.15,235,821.8,18.37,2.32,13.47,16.91,27.92,29.67,14.79,13.31,42.35,8.43,62.85,5.05s24-15.4,37.94-23.12,22.92-3.45,36.48-10.05,22.7-10.82,31.7-28.86,18.4-23.51,38.24-25.68,20.32-4.08,20.32-4.08c7.68-4.23,7.83-12.8,10.07-20.78,14.64-.76,25.66.05,35.94-8.8,2.45-.42,4.4-.87,6.11-1.3.61-476.41-187.52-903.42-452.32-953.37Z" transform="translate(844 428)"/></g><g class="cls-12"><path class="cls-13" d="M545.71,162.68c38.46,8.81,73.45,28.51,104.68,57,104.8-120.59,219-171.32,319.93-127.22l90.23-219.52a330.3,330.3,0,0,0-61.32-5.72c-157,0-318.39,109.83-453.52,295.46" transform="translate(844 428)"/></g><g class="cls-14"><path class="cls-15" d="M21.71,494.83A1405.39,1405.39,0,0,0-57.76,625.22c-41.67,77.29-78.86,162.5-109.79,253.72,15.76,1.81,31.88-1.54,37.78-3.14,10.41-2.78,12.51-8.29,24.53,6.61,4.94,6.25,11.84,9.57,19.54,11.48C-55,807.44-19.26,728.7,19.32,659.56,51.22,602.52,85.13,552,120,509.36,219.9,387,349.3,305.09,438.64,336.94Q465.87,284.29,497.37,234q22.93-36.5,48.34-71.34a189.33,189.33,0,0,0-20.14-3.62,238,238,0,0,0-30.35-1.91C342.07,157.13,157.44,298,21.71,494.83" transform="translate(844 428)"/></g><g class="cls-16"><path class="cls-17" d="M438.62,336.94c.51.23,1.23.39,1.86.6,32.32,12.15,58.95,39,80.31,77,30.65-58.63,63.45-110.77,97.45-155.42q15.39-20.26,32.13-39.44c-31.21-28.47-66.2-48.19-104.66-57Q520.29,197.49,497.37,234q-31.47,50.23-58.75,102.9" transform="translate(844 428)"/></g></g></g></svg>