<svg width="53" height="53" viewBox="0 0 53 53" fill="none" xmlns="http://www.w3.org/2000/svg">
<path d="M19.875 26.5C19.875 27.0857 19.6424 27.6474 19.2282 28.0615C18.8141 28.4757 18.2524 28.7083 17.6667 28.7083C17.081 28.7083 16.5193 28.4757 16.1052 28.0615C15.691 27.6474 15.4584 27.0857 15.4584 26.5C15.4584 25.9143 15.691 25.3526 16.1052 24.9385C16.5193 24.5243 17.081 24.2917 17.6667 24.2917C18.2524 24.2917 18.8141 24.5243 19.2282 24.9385C19.6424 25.3526 19.875 25.9143 19.875 26.5ZM28.7084 26.5C28.7084 27.0857 28.4757 27.6474 28.0616 28.0615C27.6474 28.4757 27.0857 28.7083 26.5 28.7083C25.9144 28.7083 25.3527 28.4757 24.9385 28.0615C24.5244 27.6474 24.2917 27.0857 24.2917 26.5C24.2917 25.9143 24.5244 25.3526 24.9385 24.9385C25.3527 24.5243 25.9144 24.2917 26.5 24.2917C27.0857 24.2917 27.6474 24.5243 28.0616 24.9385C28.4757 25.3526 28.7084 25.9143 28.7084 26.5ZM35.3334 28.7083C35.9191 28.7083 36.4808 28.4757 36.8949 28.0615C37.309 27.6474 37.5417 27.0857 37.5417 26.5C37.5417 25.9143 37.309 25.3526 36.8949 24.9385C36.4808 24.5243 35.9191 24.2917 35.3334 24.2917C34.7477 24.2917 34.186 24.5243 33.7718 24.9385C33.3577 25.3526 33.125 25.9143 33.125 26.5C33.125 27.0857 33.3577 27.6474 33.7718 28.0615C34.186 28.4757 34.7477 28.7083 35.3334 28.7083Z" fill="#333333" fill-opacity="0.6"/>
</svg>
