<svg width="43" height="46" viewBox="0 0 43 46" fill="none" xmlns="http://www.w3.org/2000/svg">
<path fill-rule="evenodd" clip-rule="evenodd" d="M40.5073 18.8057C41.3218 15.3425 41.0351 12.079 39.4472 9.52106C37.3271 6.08574 33.3004 4.52588 28.5277 4.77193C24.9241 0.932729 20.5473 -0.854528 16.4024 0.394257C13.0127 1.41557 10.3465 4.29377 8.66765 8.25831C4.62285 9.78562 1.61541 12.5293 0.47795 16.2291C-0.468416 19.3256 0.0229662 22.6402 1.66546 25.7598C0.350551 29.8126 0.450648 33.689 2.28423 36.6599C4.59555 40.4063 9.18178 41.9244 14.5687 41.3023C18.1586 45.095 22.5037 46.8452 26.6168 45.6057C30.0063 44.5891 32.6771 41.7062 34.3515 37.7417C38.3962 36.2143 41.3991 33.4708 42.5411 29.7755C43.6058 26.1776 42.7732 22.3246 40.5073 18.8057ZM26.9353 32.7698H15.9383C15.3775 32.7652 14.8304 32.5925 14.3652 32.2731C13.9001 31.9536 13.5373 31.5015 13.3221 30.9732C13.0953 30.4382 13.0228 29.8482 13.113 29.2726C13.2033 28.697 13.4526 28.1597 13.8317 27.7236L20.4425 20.138H15.9383C15.1575 20.138 14.4087 19.8215 13.8567 19.2582C13.3047 18.6951 12.9945 17.9311 12.9945 17.1343C12.9945 16.3378 13.3047 15.5738 13.8567 15.0106C14.4087 14.4473 15.1575 14.1308 15.9383 14.1308H26.9353C27.4954 14.1355 28.0417 14.3078 28.5068 14.6264C28.9718 14.9449 29.335 15.3956 29.5514 15.9228C29.776 16.4581 29.8474 17.0476 29.7572 17.6228C29.667 18.198 29.4189 18.7352 29.0418 19.1724L22.4308 26.758H26.9353C27.716 26.758 28.4647 27.0745 29.0168 27.6376C29.5688 28.2009 29.8789 28.9649 29.8789 29.7615C29.8789 30.5581 29.5688 31.3221 29.0168 31.8854C28.4647 32.4487 27.716 32.765 26.9353 32.765V32.7698Z" fill="#333333"/>
</svg>
